<?xml version="1.0" encoding="UTF-8"?>
<svg width="30px" height="43px" viewBox="0 0 30 43" version="1.1" xmlns="http://www.w3.org/2000/svg" xmlns:xlink="http://www.w3.org/1999/xlink">
    <!-- Generator: Sketch 48.2 (47327) - http://www.bohemiancoding.com/sketch -->
    <title>Group Copy 2</title>
    <desc>Created with Sketch.</desc>
    <defs></defs>
    <g id="首页" stroke="none" stroke-width="1" fill="none" fill-rule="evenodd" transform="translate(-849.000000, -243.000000)">
        <g id="Group" transform="translate(849.000000, 241.000000)">
            <g id="Group-Copy-2" transform="translate(0.000000, 2.000000)">
                <rect id="Rectangle-14-Copy-324" fill="#559FF8" x="12" y="10" width="5" height="5"></rect>
                <rect id="Rectangle-14-Copy-323" fill="#559FF8" x="12" y="18" width="5" height="5"></rect>
                <rect id="Rectangle-14-Copy-322" fill="#77B2F9" x="0" y="0" width="5" height="5"></rect>
                <rect id="Rectangle-14-Copy-321" fill="#77B2F9" x="5" y="0" width="5" height="5"></rect>
                <rect id="Rectangle-14-Copy-320" fill="#88BBFA" x="10" y="0" width="5" height="5"></rect>
                <rect id="Rectangle-14-Copy-319" fill="#88BBFA" x="15" y="0" width="5" height="5"></rect>
                <rect id="Rectangle-14-Copy-318" fill="#99C5FB" x="20" y="0" width="5" height="5"></rect>
                <rect id="Rectangle-14-Copy-317" fill="#99C5FB" x="25" y="0" width="5" height="5"></rect>
                <rect id="Rectangle-14-Copy-316" fill="#99C5FB" x="25" y="5" width="5" height="5"></rect>
                <rect id="Rectangle-14-Copy-315" fill="#77B2F9" x="0" y="5" width="5" height="5"></rect>
                <rect id="Rectangle-14-Copy-314" fill="#559FF8" transform="translate(2.500000, 40.500000) scale(1, -1) translate(-2.500000, -40.500000) " x="0" y="38" width="5" height="5"></rect>
                <rect id="Rectangle-14-Copy-313" fill="#559FF8" transform="translate(7.500000, 40.500000) scale(1, -1) translate(-7.500000, -40.500000) " x="5" y="38" width="5" height="5"></rect>
                <rect id="Rectangle-14-Copy-312" fill="#66A8F8" transform="translate(12.500000, 40.500000) scale(1, -1) translate(-12.500000, -40.500000) " x="10" y="38" width="5" height="5"></rect>
                <rect id="Rectangle-14-Copy-311" fill="#66A8F8" transform="translate(17.500000, 40.500000) scale(1, -1) translate(-17.500000, -40.500000) " x="15" y="38" width="5" height="5"></rect>
                <rect id="Rectangle-14-Copy-310" fill="#77B2F9" transform="translate(22.500000, 40.500000) scale(1, -1) translate(-22.500000, -40.500000) " x="20" y="38" width="5" height="5"></rect>
                <rect id="Rectangle-14-Copy-309" fill="#77B2F9" transform="translate(27.500000, 40.500000) scale(1, -1) translate(-27.500000, -40.500000) " x="25" y="38" width="5" height="5"></rect>
                <rect id="Rectangle-14-Copy-308" fill="#77B2F9" transform="translate(27.500000, 35.500000) scale(1, -1) translate(-27.500000, -35.500000) " x="25" y="33" width="5" height="5"></rect>
                <rect id="Rectangle-14-Copy-307" fill="#559FF8" transform="translate(2.500000, 35.500000) scale(1, -1) translate(-2.500000, -35.500000) " x="0" y="33" width="5" height="5"></rect>
                <polygon id="Rectangle-14-Copy-306" fill="#559FF8" points="12 28 17 28 17 33 12 33"></polygon>
                <rect id="Rectangle-14-Copy-304" fill="#559FF8" x="12" y="23" width="5" height="5"></rect>
            </g>
        </g>
    </g>
</svg>